<svg xmlns="http://www.w3.org/2000/svg" viewBox="-48 -48 96 96">
  <!-- dizzy_bee (A1.2, aus tools/design/abenteuer_assets.py). Ursprung = Boxmitte, Blick nach rechts. -->
  <g id="idle"><g transform="translate(0,12.0) scale(0.5)"><g transform="translate(0,-6)"><g transform="translate(0,0) scale(1.0,1.0)"><ellipse cx="-6" cy="-30" rx="14" ry="20" fill="#dff1fb" fill-opacity="0.9" stroke="#2b2b2b" stroke-width="3" stroke-linejoin="round" stroke-linecap="round" transform="rotate(-25 -6 -30)"/><ellipse cx="10" cy="-32" rx="12" ry="18" fill="#dff1fb" fill-opacity="0.9" stroke="#2b2b2b" stroke-width="3" stroke-linejoin="round" stroke-linecap="round" transform="rotate(20 10 -32)"/><ellipse cx="0" cy="-6" rx="26" ry="20" fill="#f2b33a" stroke="#2b2b2b" stroke-width="4" stroke-linejoin="round" stroke-linecap="round"/><path d="M -10,-24 Q -14,-6 -10,12 M 4,-25 Q 0,-6 4,13" fill="none" stroke="#3a3030" stroke-width="7"/><path d="M -26,-6 L -36,-4 L -26,0" fill="#3a3030" stroke="#2b2b2b" stroke-width="2" stroke-linejoin="round" stroke-linecap="round"/><circle cx="14" cy="-10" r="5.5" fill="#ffffff" stroke="#2b2b2b" stroke-width="2" stroke-linejoin="round" stroke-linecap="round"/><path d="M 14,-10 m -3,0 a 3,3 0 1 1 3,3 a 1.6,1.6 0 1 1 -1.6,-1.6" fill="none" stroke="#2b2b2b" stroke-width="1.6"/><circle cx="24" cy="-10" r="5.5" fill="#ffffff" stroke="#2b2b2b" stroke-width="2" stroke-linejoin="round" stroke-linecap="round"/><path d="M 24,-10 m -3,0 a 3,3 0 1 1 3,3 a 1.6,1.6 0 1 1 -1.6,-1.6" fill="none" stroke="#2b2b2b" stroke-width="1.6"/><path d="M 12,0 q 4,-3 8,0 q 4,3 8,0" fill="none" stroke="#2b2b2b" stroke-width="2.4"/><path d="M 12,-24 Q 14,-38 22,-40 M 18,-22 Q 24,-34 32,-34" fill="none" stroke="#2b2b2b" stroke-width="2.4"/><circle cx="22" cy="-40" r="2.6" fill="#2b2b2b"/><circle cx="32" cy="-34" r="2.6" fill="#2b2b2b"/></g></g></g></g>
</svg>
