<svg xmlns="http://www.w3.org/2000/svg" viewBox="-36 -28 62 30">
  <!-- schlafende Katze (A1.9, aus tools/design/tauwinkel_requisiten.py). Ursprung unten in der Mitte. -->
  <path d="M -22,0 Q -24,-16 -6,-18 Q 12,-20 18,-8 Q 20,0 12,0 Z" fill="#8a8580" stroke="#2b2b2b" stroke-width="2.0" stroke-linejoin="round" stroke-linecap="round"/><path d="M 10,-14 L 12,-24 L 17,-16 L 22,-22 L 22,-10 Q 20,-4 14,-6 Z" fill="#8a8580" stroke="#2b2b2b" stroke-width="2.0" stroke-linejoin="round" stroke-linecap="round"/><path d="M 15,-12 q 1.5,1.5 3,0" fill="none" stroke="#2b2b2b" stroke-width="1.4"/><path d="M -22,-2 Q -32,-2 -30,-10 Q -28,-14 -22,-12" fill="none" stroke="#2b2b2b" stroke-width="4.5" stroke-linecap="round"/><path d="M -22,-2 Q -32,-2 -30,-10 Q -28,-14 -22,-12" fill="none" stroke="#8a8580" stroke-width="2.6" stroke-linecap="round"/><path d="M -8,-12 q 4,-3 8,0 M 0,-8 q 4,-3 8,0" fill="none" stroke="#6e6a66" stroke-width="1.4"/>
</svg>
