<svg xmlns="http://www.w3.org/2000/svg" viewBox="-120 -320 270 322">
  <!-- Tauwinkel: schmiede (A1.9, aus tools/design/tauwinkel_gebaeude.py). Ursprung unten in der Mitte. -->
  <rect x="58" y="-262" width="28" height="110" fill="#aca69c" stroke="#2b2b2b" stroke-width="2.0" stroke-linejoin="round" stroke-linecap="round"/><rect x="54" y="-268" width="36" height="8" fill="#857f76" stroke="#2b2b2b" stroke-width="1.6" stroke-linejoin="round" stroke-linecap="round"/><ellipse cx="72" cy="-282" rx="18" ry="9" fill="#d6d6d6" opacity="0.85"/><ellipse cx="80" cy="-300" rx="12" ry="6" fill="#e2e2e2" opacity="0.7"/><rect x="-96" y="-140" width="192" height="140" fill="#aca69c" stroke="#2b2b2b" stroke-width="2.0" stroke-linejoin="round" stroke-linecap="round"/><path d="M -96,-126 H 96" stroke="#857f76" stroke-width="1.4"/><path d="M -70,-140 V -126" stroke="#857f76" stroke-width="1.4"/><path d="M -44,-140 V -126" stroke="#857f76" stroke-width="1.4"/><path d="M -18,-140 V -126" stroke="#857f76" stroke-width="1.4"/><path d="M 8,-140 V -126" stroke="#857f76" stroke-width="1.4"/><path d="M 34,-140 V -126" stroke="#857f76" stroke-width="1.4"/><path d="M 60,-140 V -126" stroke="#857f76" stroke-width="1.4"/><path d="M 86,-140 V -126" stroke="#857f76" stroke-width="1.4"/><path d="M -96,-112 H 96" stroke="#857f76" stroke-width="1.4"/><path d="M -57,-126 V -112" stroke="#857f76" stroke-width="1.4"/><path d="M -31,-126 V -112" stroke="#857f76" stroke-width="1.4"/><path d="M -5,-126 V -112" stroke="#857f76" stroke-width="1.4"/><path d="M 21,-126 V -112" stroke="#857f76" stroke-width="1.4"/><path d="M 47,-126 V -112" stroke="#857f76" stroke-width="1.4"/><path d="M 73,-126 V -112" stroke="#857f76" stroke-width="1.4"/><path d="M -96,-98 H 96" stroke="#857f76" stroke-width="1.4"/><path d="M -70,-112 V -98" stroke="#857f76" stroke-width="1.4"/><path d="M -44,-112 V -98" stroke="#857f76" stroke-width="1.4"/><path d="M -18,-112 V -98" stroke="#857f76" stroke-width="1.4"/><path d="M 8,-112 V -98" stroke="#857f76" stroke-width="1.4"/><path d="M 34,-112 V -98" stroke="#857f76" stroke-width="1.4"/><path d="M 60,-112 V -98" stroke="#857f76" stroke-width="1.4"/><path d="M 86,-112 V -98" stroke="#857f76" stroke-width="1.4"/><path d="M -96,-84 H 96" stroke="#857f76" stroke-width="1.4"/><path d="M -57,-98 V -84" stroke="#857f76" stroke-width="1.4"/><path d="M -31,-98 V -84" stroke="#857f76" stroke-width="1.4"/><path d="M -5,-98 V -84" stroke="#857f76" stroke-width="1.4"/><path d="M 21,-98 V -84" stroke="#857f76" stroke-width="1.4"/><path d="M 47,-98 V -84" stroke="#857f76" stroke-width="1.4"/><path d="M 73,-98 V -84" stroke="#857f76" stroke-width="1.4"/><path d="M -96,-70 H 96" stroke="#857f76" stroke-width="1.4"/><path d="M -70,-84 V -70" stroke="#857f76" stroke-width="1.4"/><path d="M -44,-84 V -70" stroke="#857f76" stroke-width="1.4"/><path d="M -18,-84 V -70" stroke="#857f76" stroke-width="1.4"/><path d="M 8,-84 V -70" stroke="#857f76" stroke-width="1.4"/><path d="M 34,-84 V -70" stroke="#857f76" stroke-width="1.4"/><path d="M 60,-84 V -70" stroke="#857f76" stroke-width="1.4"/><path d="M 86,-84 V -70" stroke="#857f76" stroke-width="1.4"/><path d="M -96,-56 H 96" stroke="#857f76" stroke-width="1.4"/><path d="M -57,-70 V -56" stroke="#857f76" stroke-width="1.4"/><path d="M -31,-70 V -56" stroke="#857f76" stroke-width="1.4"/><path d="M -5,-70 V -56" stroke="#857f76" stroke-width="1.4"/><path d="M 21,-70 V -56" stroke="#857f76" stroke-width="1.4"/><path d="M 47,-70 V -56" stroke="#857f76" stroke-width="1.4"/><path d="M 73,-70 V -56" stroke="#857f76" stroke-width="1.4"/><path d="M -96,-42 H 96" stroke="#857f76" stroke-width="1.4"/><path d="M -70,-56 V -42" stroke="#857f76" stroke-width="1.4"/><path d="M -44,-56 V -42" stroke="#857f76" stroke-width="1.4"/><path d="M -18,-56 V -42" stroke="#857f76" stroke-width="1.4"/><path d="M 8,-56 V -42" stroke="#857f76" stroke-width="1.4"/><path d="M 34,-56 V -42" stroke="#857f76" stroke-width="1.4"/><path d="M 60,-56 V -42" stroke="#857f76" stroke-width="1.4"/><path d="M 86,-56 V -42" stroke="#857f76" stroke-width="1.4"/><path d="M -96,-28 H 96" stroke="#857f76" stroke-width="1.4"/><path d="M -57,-42 V -28" stroke="#857f76" stroke-width="1.4"/><path d="M -31,-42 V -28" stroke="#857f76" stroke-width="1.4"/><path d="M -5,-42 V -28" stroke="#857f76" stroke-width="1.4"/><path d="M 21,-42 V -28" stroke="#857f76" stroke-width="1.4"/><path d="M 47,-42 V -28" stroke="#857f76" stroke-width="1.4"/><path d="M 73,-42 V -28" stroke="#857f76" stroke-width="1.4"/><path d="M -96,-14 H 96" stroke="#857f76" stroke-width="1.4"/><path d="M -70,-28 V -14" stroke="#857f76" stroke-width="1.4"/><path d="M -44,-28 V -14" stroke="#857f76" stroke-width="1.4"/><path d="M -18,-28 V -14" stroke="#857f76" stroke-width="1.4"/><path d="M 8,-28 V -14" stroke="#857f76" stroke-width="1.4"/><path d="M 34,-28 V -14" stroke="#857f76" stroke-width="1.4"/><path d="M 60,-28 V -14" stroke="#857f76" stroke-width="1.4"/><path d="M 86,-28 V -14" stroke="#857f76" stroke-width="1.4"/><path d="M -108,-140 L -78,-202 H 78 L 108,-140 Z" fill="#5b6672" stroke="#2b2b2b" stroke-width="2.0" stroke-linejoin="round" stroke-linecap="round"/><path d="M -100.5,-155.5 H 100.5" stroke="#434c56" stroke-width="1.6"/><path d="M -93.0,-171.0 H 93.0" stroke="#434c56" stroke-width="1.6"/><path d="M -85.5,-186.5 H 85.5" stroke="#434c56" stroke-width="1.6"/><path d="M -70,0 V -70 Q -36,-104 -2,-70 V 0 Z" fill="#2f2620" stroke="#2b2b2b" stroke-width="2.0" stroke-linejoin="round" stroke-linecap="round"/><ellipse cx="-36" cy="-14" rx="26" ry="10" fill="#f28c3a"/><ellipse cx="-36" cy="-16" rx="14" ry="5" fill="#f8c060"/><rect x="26" y="-20" width="34" height="20" fill="#7a5434" stroke="#2b2b2b" stroke-width="2.0" stroke-linejoin="round" stroke-linecap="round"/><path d="M 18,-20 H 70 Q 76,-34 62,-34 H 34 Q 18,-34 18,-20 Z" fill="#5a5a5a" stroke="#2b2b2b" stroke-width="2.0" stroke-linejoin="round" stroke-linecap="round"/><path d="M 74,-96 H 92" stroke="#2b2b2b" stroke-width="3"/><path d="M 96,-98 H 122" stroke="#2b2b2b" stroke-width="3"/><path d="M 110,-98 V -90 M 120,-98 V -90" stroke="#2b2b2b" stroke-width="1.4"/><rect x="98.0" y="-90" width="34" height="26" rx="3" fill="#a87a52" stroke="#2b2b2b" stroke-width="2.0" stroke-linejoin="round" stroke-linecap="round"/><path d="M 107,-69 L 121,-83" stroke="#2b2b2b" stroke-width="3.5" stroke-linecap="round"/><rect x="116" y="-89" width="12" height="8" rx="1.5" fill="#c8ced6" stroke="#2b2b2b" stroke-width="1.4" stroke-linejoin="round" stroke-linecap="round" transform="rotate(-45 122 -85)"/>
</svg>
