<svg xmlns="http://www.w3.org/2000/svg" viewBox="-78 -100 156 102">
  <!-- Wäscheleine (A1.9, aus tools/design/tauwinkel_requisiten.py). Ursprung unten in der Mitte. -->
  <rect x="-74" y="-96" width="6" height="96" fill="#a87a52" stroke="#2b2b2b" stroke-width="1.6" stroke-linejoin="round" stroke-linecap="round"/><rect x="68" y="-96" width="6" height="96" fill="#a87a52" stroke="#2b2b2b" stroke-width="1.6" stroke-linejoin="round" stroke-linecap="round"/><path d="M -70,-90 Q 0,-76 70,-90" fill="none" stroke="#7a7266" stroke-width="1.6"/><path d="M -52,-80.80285714285714 H -30 L -32,-50.802857142857135 H -50 Z" fill="#d9cfc0" stroke="#2b2b2b" stroke-width="1.6" stroke-linejoin="round" stroke-linecap="round"/><path d="M -48,-80.80285714285714 V -84.80285714285714 M -34,-80.80285714285714 V -84.80285714285714" stroke="#7a5434" stroke-width="2.2"/><path d="M -22,-76.14 H 8 L 6,-52.14 H -20 Z" fill="#a9b8c8" stroke="#2b2b2b" stroke-width="1.6" stroke-linejoin="round" stroke-linecap="round"/><path d="M -18,-76.14 V -80.14 M 4,-76.14 V -80.14" stroke="#7a5434" stroke-width="2.2"/><path d="M 16,-77.93142857142857 H 36 L 34,-43.93142857142857 H 18 Z" fill="#d6b6a0" stroke="#2b2b2b" stroke-width="1.6" stroke-linejoin="round" stroke-linecap="round"/><path d="M 20,-77.93142857142857 V -81.93142857142857 M 32,-77.93142857142857 V -81.93142857142857" stroke="#7a5434" stroke-width="2.2"/><path d="M 44,-84.02571428571429 H 62 L 60,-62.02571428571429 H 46 Z" fill="#c8c2a8" stroke="#2b2b2b" stroke-width="1.6" stroke-linejoin="round" stroke-linecap="round"/><path d="M 48,-84.02571428571429 V -88.02571428571429 M 58,-84.02571428571429 V -88.02571428571429" stroke="#7a5434" stroke-width="2.2"/>
</svg>
