<svg xmlns="http://www.w3.org/2000/svg" viewBox="0 -380 1024 380">
  <!-- Bergkette mit Schneekappen (Stil A). Ursprung unten links, 1024 breit, nahtlos wiederholbar. -->
  <path d="M 0,0 L 0,-244.96 L 16,-212.59 L 32,-246.7 L 48,-277.67 L 64,-296.89 L 80,-300 L 96,-296.89 L 112,-277.67 L 128,-246.7 L 144,-208.36 L 160,-167.02 L 176,-127.05 L 192,-95.65 L 208,-128.71 L 224,-167.84 L 240,-210 L 256,-252.16 L 272,-291.29 L 288,-324.35 L 304,-348.3 L 320,-360.12 L 336,-360.83 L 352,-352.51 L 368,-331.31 L 384,-300.24 L 400,-262.35 L 416,-220.66 L 432,-178.21 L 448,-138.04 L 464,-106.73 L 480,-144.49 L 496,-185.38 L 512,-224.4 L 528,-256.52 L 544,-276.72 L 560,-280 L 576,-276.72 L 592,-256.52 L 608,-224.4 L 624,-185.38 L 640,-144.49 L 656,-106.73 L 672,-97.18 L 688,-131.25 L 704,-171.07 L 720,-213.22 L 736,-254.31 L 752,-290.93 L 768,-319.69 L 784,-337.18 L 800,-340 L 816,-337.18 L 832,-319.69 L 848,-290.93 L 864,-254.31 L 880,-213.22 L 896,-171.07 L 912,-131.25 L 928,-127.52 L 944,-170.98 L 960,-212.59 L 976,-244.96 L 992,-260.69 L 1008,-260.69 L 1024,-244.96 L 1024,0 Z" fill="#a9bccf"/>
  <path d="M 38,-262.2 Q 80,-306 122,-262.2 Q 96.8,-274.8 80,-258 Q 63.2,-274.8 38,-262.2 Z" fill="#eef4f8"/><path d="M 279.6,-314.64 Q 330,-366 380.4,-314.64 Q 350.16,-329.76 330,-309.6 Q 309.84,-329.76 279.6,-314.64 Z" fill="#eef4f8"/><path d="M 520.8,-244.72 Q 560,-286 599.2,-244.72 Q 575.68,-256.48 560,-240.8 Q 544.32,-256.48 520.8,-244.72 Z" fill="#eef4f8"/><path d="M 752.4,-297.16 Q 800,-346 847.6,-297.16 Q 819.04,-311.44 800,-292.4 Q 780.96,-311.44 752.4,-297.16 Z" fill="#eef4f8"/><path d="M 966.4,-229.76 Q 1000,-266 1033.6,-229.76 Q 1013.44,-239.84 1000,-226.4 Q 986.56,-239.84 966.4,-229.76 Z" fill="#eef4f8"/>
</svg>
