<svg xmlns="http://www.w3.org/2000/svg" viewBox="-60 -80 120 90">
  <!-- klonk (A1.7, aus tools/design/abenteuer_assets.py). Ursprung = Boden, Blick nach rechts. -->
  <g id="figure"><g transform="scale(0.432)">
  
  <g id="foot-back">
    <ellipse cx="-20" cy="-8" rx="14" ry="8" fill="#6b4a32" stroke="#2b2b2b" stroke-width="4"/>
  </g>
  <g id="foot-front">
    <ellipse cx="22" cy="-8" rx="14" ry="8" fill="#6b4a32" stroke="#2b2b2b" stroke-width="4"/>
  </g>
  <g id="body">
    <path d="M 19.8,-131 C 25.9,-107 50,-85 50,-55 C 50,-27 28,-9 0,-9 C -28,-9 -50,-27 -50,-55 C -50,-85 -6.1,-107 19.8,-131 Z"
          fill="#a8744a" stroke="#2b2b2b" stroke-width="5" stroke-linejoin="round"/>
    <path d="M -34,-41 C -30,-21 -12,-15 4,-15 C 22,-15 36,-25 40,-41 C 26,-33 -18,-31 -34,-41 Z" fill="#cfb39b"/>
  </g>
  <g id="eyes">
    <ellipse cx="2" cy="-63" rx="6.5" ry="11" fill="#2b2b2b"/>
    <ellipse cx="26" cy="-63" rx="6.5" ry="11" fill="#2b2b2b"/>
    <circle cx="4" cy="-68" r="2.6" fill="#ffffff"/>
    <circle cx="28" cy="-68" r="2.6" fill="#ffffff"/>
    
  </g>
<path d="M -40,-36 L -34,-84 M 44,-36 L 40,-80" fill="none" stroke="#2b2b2b" stroke-width="4"/><path d="M -42,-36 L 46,-36 L 46,-18 Q 4,-6 -44,-18 Z" fill="#5a5a5a" stroke="#2b2b2b" stroke-width="4" stroke-linejoin="round"/><rect x="-6" y="-32" width="22" height="12" rx="3" fill="#4a4a4a" stroke="#2b2b2b" stroke-width="2.5"/><path d="M -10,-82 L 12,-76" stroke="#2b2b2b" stroke-width="7" stroke-linecap="round"/><path d="M 18,-76 L 38,-82" stroke="#2b2b2b" stroke-width="7" stroke-linecap="round"/><path d="M -4,-46 Q 14,-58 32,-46 Q 26,-38 14,-42 Q 2,-38 -4,-46 Z" fill="#4a3424" stroke="#2b2b2b" stroke-width="3"/><path d="M 46,-14 L 66,-78" stroke="#2b2b2b" stroke-width="10" stroke-linecap="round"/><path d="M 46,-14 L 66,-78" stroke="#8a6a4a" stroke-width="5" stroke-linecap="round"/><rect x="50" y="-98" width="34" height="22" rx="5" fill="#c8ced6" stroke="#2b2b2b" stroke-width="4" transform="rotate(17 67 -87)"/></g></g>
</svg>
