<svg xmlns="http://www.w3.org/2000/svg" viewBox="0 0 32 32">
  <!-- Sand (Stil A). -->
  <g id="cap"><path d="M 0,0 H 32 V 7 Q 28,8.6 24,7 Q 20,8.6 16,7 Q 12,8.6 8,7 Q 4,8.6 0,7 Z" fill="#ecd08f"/><path d="M 4,4 q 3,-1.5 6,0 M 17,5 q 3,-1.5 6,0" stroke="#d9b26f" stroke-width="1.2" stroke-linecap="round" fill="none"/></g>
  <g id="cap-left"><path d="M 0,7.8 L 0,10 Q 0,0 10,0 H 32 V 7 Q 28,8.6 24,7 Q 20,8.6 16,7 Q 12,8.6 8,7 Q 4,8.6 0,7 Z" fill="#ecd08f"/><path d="M 4,4 q 3,-1.5 6,0 M 17,5 q 3,-1.5 6,0" stroke="#d9b26f" stroke-width="1.2" stroke-linecap="round" fill="none"/></g>
  <g id="cap-right"><path d="M 0,0 H 22 Q 32,0 32,10 L 32,7.8 Q 28,8.6 24,7 Q 20,8.6 16,7 Q 12,8.6 8,7 Q 4,8.6 0,7 Z" fill="#ecd08f"/><path d="M 4,4 q 3,-1.5 6,0 M 17,5 q 3,-1.5 6,0" stroke="#d9b26f" stroke-width="1.2" stroke-linecap="round" fill="none"/></g>
  <g id="cap-single"><path d="M 0,7.8 L 0,10 Q 0,0 10,0 H 22 Q 32,0 32,10 L 32,7.8 Q 28,8.6 24,7 Q 20,8.6 16,7 Q 12,8.6 8,7 Q 4,8.6 0,7 Z" fill="#ecd08f"/><path d="M 4,4 q 3,-1.5 6,0 M 17,5 q 3,-1.5 6,0" stroke="#d9b26f" stroke-width="1.2" stroke-linecap="round" fill="none"/></g>
  <g id="detail-1"><ellipse cx="14" cy="20" rx="1.5" ry="1.5" fill="#c39a55"/><ellipse cx="19" cy="23" rx="1.2" ry="1.2" fill="#c39a55"/><ellipse cx="11" cy="25" rx="1" ry="1" fill="#c39a55"/></g>
  <g id="detail-2"><path d="M 9,21 q 4,-2 8,0 q 4,2 7,0" stroke="#c39a55" stroke-width="1.4" stroke-linecap="round" stroke-linejoin="round" fill="none"/></g>
  <g id="detail-3"><ellipse cx="18" cy="19" rx="3" ry="2" fill="#e6c585"/></g>
</svg>
